<svg xmlns="http://www.w3.org/2000/svg" fill="none" height="119" viewBox="0 0 234 119" width="234"><path d="m1.87946 91.7945c-4.08675-10.9001.53749-21.2047 8.14684-29.0507 2.653-2.7344 5.5723-5.11 8.7518-7.2035 2.808-1.8491 5.8747-3.3706 8.946-4.7794 2.28-1.0452 4.3782-1.9854 6.9763-2.8159-19.2319-18.0065 26.4589-39.87248 40.3661-37.5486 2.5777.4309.0956 2.0449-.9402 2.5652-2.6247 1.3178-5.4328 2.2533-8.1046 3.4725-5.2902 2.4147-10.4676 5.088-15.167 8.5386-3.7937 2.7861-7.9479 5.7227-10.3564 9.8847-1.5482 2.6748-.9214 5.5378 2.1327 6.6206 4.477 1.5889 9.4146-.9731 13.8179.8556.6832.2836 1.5968.7866 1.9666 1.4745 1.5435 2.8473-7.4793 5.6726-9.2501 6.3229-5.4406 2.0026-11.1649 3.2672-16.4222 5.7556-7.542 3.5665-14.3271 10.2639-17.5019 18.03-1.7911 4.3844-2.5401 11.3796-.0658 15.5948 4.0304 6.8635 13.5107 3.0776 19.4325 1.6657 1.4306-.3416 7.4025-2.4445 7.6219.3746.083 1.0655-1.4808 2.8378-2.1891 3.4991-8.4117 7.8382-24.4845 11.7622-33.85677 3.2327-1.96973-1.7926-3.3769-4.0256-4.30457-6.489zm99.37754-54.875c-1.6229-1.393-4.4138-.702-5.6502.6989-1.1596 1.3148-2.269 3.554-2.2612 5.3341.0126 1.7159 1.6 3.4333 3.2281 3.6841 2.0167.3087 3.9753-1.1659 4.8533-2.899.913-1.8036 1.593-5.3059-.17-6.8181zm124.99 19.3338c2.61 3.5837 3.53 9.2124 2.627 13.4935-1.549 7.3539-8.676 12.6394-15.912 13.6235-8.252 1.1204-17.118-2.0684-20.373-10.6588-.169-.4466-.419-.5672-.868-.2946-3.601 2.1703-9.572 4.2623-13.669 3.4004-2.898-.6095-5.629-2.1624-7.588-4.4283-.235-.2727-.481-.608-.691-.8697-.343-.4247-.766-.1003-1.156.0627-3.106 1.3037-6.22 2.526-9.603 2.8378-1.565.1442-4.022-.0188-5.234-1.1768-2.966-2.8394-.985-8.7392.171-11.9813.635-1.7786 1.559-3.4835 1.782-5.3827.216-1.8381-1.649-2.0841-3.017-1.6438-5.305 1.7096-6.138 8.5371-7.446 13.1143-.588 2.0559-1.078 4.1494-1.879 6.138-.525 1.3021-1.156 2.7313-2.241 3.6652-1.104.9527-2.844 1.3523-4.039.3275-.576-.4936-1.104-1.4213-1.238-2.1703-.561-3.1043.617-6.1991 1.549-9.109.461-1.4338.944-2.8927 1.138-4.3923.146-1.1346-.094-2.0544-1.498-1.0468-2.083 1.4949-3.479 4.2121-4.935 6.2618-2.399 3.3753-5.371 6.7945-8.803 9.1466-2.158 1.4792-9.341 3.5085-9.051-1.4432.194-3.2265 5.248-5.1148 8.622-7.8131 1.617-1.2944 3.101-2.8441 3.757-4.8609 1.337-4.0977-.462-9.4036-5.186-6.442-2.766 1.7285-5.765 5.295-6.974 8.3491-2.292 5.7963-2.175 12.4467-2.41 18.5815-.202 5.3043-.26 10.8108-1.736 15.9537-.798 2.7877-3.645 9.8317-7.627 8.1357-5.9698-2.526-.752-16.5881.59-20.7673 1.097-3.4177 2.327-6.7852 3.256-10.253.271-1.0232 1.628-4.0585.031-4.1948-.921-.0752-2.659 2.5746-3.176 3.0807-2.786 2.7862-6.9356 6.2759-11.1681 5.9468-2.4101-.1849-4.1761-2.1233-4.9267-4.3281-.2084-.6127-.4889-1.9791-1.1517-2.2549-1.1346-.4717-2.9977 1.6689-3.7718 2.2581-1.3931 1.0436-2.7595 2.1405-4.1495 3.2123-2.6984 2.0982-5.472 4.1385-8.5245 5.7024-2.7297 1.3946-5.6976 2.41-8.7815 2.4649-1.3382.0156-3.1418.0971-3.7906-1.3539-.9465-2.1155 1.0217-4.6086 2.6059-5.7682 1.7159-1.2567 3.753-1.9744 5.4987-3.1857 2.2142-1.5341 4.1196-3.1434 5.3748-5.6036 1.0201-2.0011 1.8914-6.3292-1.3915-6.7679-2.2643-.3024-4.9831 1.9854-6.4999 3.427-1.8914 1.7958-3.3707 3.9786-4.5318 6.3025-2.3161 4.6352-3.4318 9.7766-4.3579 14.8396-.8368 4.5725-1.3899 9.1905-2.1452 13.7751-.7287 4.443-.9402 9.553-3.2672 13.528-1.4009 2.395-3.9802 3.515-6.3041 1.447-2.8002-2.493-2.4508-6.774-1.9572-10.075.6394-4.288 1.8585-8.4645 3.3142-12.5403.9747-2.7266 2.0403-5.425 2.9852-8.1625 1.1126-3.2234 2.1405-6.4937 2.783-9.8518.3103-1.6187.5359-3.2578.5782-4.9063.0329-1.2614-.3572-3.0901.503-4.1588.5783-.7177 1.6579-.666 2.4571-.9716 2.2784-.8697 3.8799-2.8363 5.403-4.6493 1.6297-1.9384 3.1309-3.9865 4.7951-5.8951 2.9507-3.3847 7.8382-7.216 12.5972-4.9345 3.134 1.5012 4.9423 5.0364 4.8671 8.4337-.0392 1.7111-.4372 3.9206-1.2521 5.4484-.3776.7083-.9449 1.3257-1.2959 2.0419-.2162.4403-.3384 1.2113.3009 1.288.6472.0768 1.5498-.8117 2.0246-1.1752 2.1405-1.6156 3.6244-3.9646 5.0097-6.2163 1.4181-2.302 7.6078-17.6101 11.0803-8.8583.9151 2.3066-.4121 4.8624-1.3837 6.9214-.8227 1.741-1.6735 3.4819-2.2486 5.3247-.3902 1.2505-.9935 3.6136.1708 4.665 2.421 2.1797 6.6566-2.7705 8.0947-4.3657 1.05-1.1643 2.031-2.3881 2.965-3.6448 2.161-2.9037 4.258-5.9092 5.851-9.167.89-1.8177 1.395-4.9345 4.208-4.2309 1.297.3259 2.703.4387 3.999.0501 1.564-.4701 2.285-1.7942 3.303-2.9491 1.707-1.9337 3.75-3.8674 6.332-4.4785 2.174-.5155 4.261.2194 5.7 1.8663 1.505 1.7221 1.985 3.695 2.48 5.8637.34 1.4918 1.075 2.6483 2.7 1.694 2.548-1.4949 3.828-4.6086 4.425-7.3367.901-4.1166.688-8.3961 1.028-12.5753.569-6.9951 2.255-13.7144 5.585-19.92603 1.708-3.18416 3.794-7.71281 7.341-9.209298 3.106-1.310019 6.541.314968 7.555 3.593148 2.194 7.09388.953 15.52438-1.847 22.26558-1.66 3.9943-3.921 7.7175-6.37 11.2652-1.32 1.9086-2.79 3.7091-4.341 5.4344-.326.362-.796.8697-.793 1.1596.01.6801.744.1097.915-.011 3.083-2.2016 6.651-4.2748 10.549-3.2045 3.001.8242 4.097 3.4929 4.267 6.431.253 4.5208-2.198 8.7345-4.582 12.3746-.764 1.1565-2.601 3.5274-2.168 5.0066.526 1.7833 3.652.6691 4.743.2398.909-.3589 1.573-.6456 2.476-1.0201.45-.1881.917-.5234.985-1.0593.174-1.3633.195-2.5167.314-3.8847.476-5.4422 3.049-12.6692 8.402-15.1122 4.9-2.2361 10.468-.4638 13.009 4.3359 2.931 5.5378-.329 11.9218-5.001 15.2235-1.942 1.3711-4.062 2.4727-6.25 3.3941-.337.1426-.822.3683-1.136.5516-.885.5171.793 1.3445 1.23 1.5106 4.769 1.8146 10.377-2.4602 12.757-6.3087.967-1.5608 1.472-3.4788 2.376-5.0991.884-1.5795 1.938-3.0697 3.237-4.3359 3.814-3.7232 9.598-5.0222 14.782-4.5318 5.525.5218 10.933 3.0181 14.257 7.5781zm-68.731-46.57459c-1.805-1.27868-3.331 3.48349-3.671 4.42679-.952 2.6388-1.688 5.3858-2.276 8.1281-.2.89-1.645 8.9131-.758 9.3566.691.3463 1.88-1.8491 2.192-2.4132 2.736-4.9659 4.468-10.7497 5.135-16.3753.107-.8884.257-2.4993-.622-3.12299zm21.553 41.23109c-1.111.1802-2.133.854-2.764 1.777-.786 1.1501-1.218 2.5322-1.439 3.8955-.114.7021-.218 1.6109-.212 2.3224.007.6816-.094 1.6892.8 1.8569.797.1504 1.716-.1928 3.419-1.2552 1.611-1.0029 3.463-2.6075 3.935-4.5208.57-2.3176-1.301-4.4738-3.739-4.0758zm38.258 22.9441c4.936-4.1588 4.371-11.7776-.641-15.4491-4.665-3.4192-12.243-2.5104-14.833 3.2687-4.673 10.4238 7.702 18.7258 15.474 12.1804zm1.519 15.1686c-.428 6.185 10.682 8.8364 11.213 1.2536.274-6.6441-10.602-7.0687-11.213-1.2536zm8.502 13.0245c.644 1.464 2.512 1.862 3.932 1.215 4.304-1.962.669-6.9122-3.126-4.6243-1.105.6675-1.281 2.2373-.834 3.3413z" fill="#ff5f3c"></path></svg>