<svg xmlns="http://www.w3.org/2000/svg" height="87" viewBox="0 0 171 87" width="171"><path d="m1.47496 67.5768c-2.97966-7.9473.39188-15.4604 5.93989-21.181 1.93426-1.9936 4.06275-3.7257 6.38085-5.2521 2.0474-1.3481 4.2833-2.4575 6.5226-3.4846 1.6624-.7621 3.1922-1.4476 5.0865-2.0531-14.022-13.1285 19.2912-29.07108 29.4309-27.37674 1.8795.31419.0697 1.49097-.6855 1.87024-1.9137.9609-3.961 1.643-5.909 2.5318-3.8571 1.7606-7.632 3.7098-11.0583 6.2256-2.766 2.0313-5.7948 4.1724-7.5509 7.2069-1.1288 1.9502-.6718 4.0376 1.555 4.8271 3.2641 1.1585 6.8642-.7095 10.0746.6238.4981.2068 1.1642.5735 1.4339 1.0751 1.1253 2.0759-5.4532 4.1359-6.7443 4.61-3.9667 1.4601-8.1403 2.3821-11.9734 4.1964-5.4989 2.6004-10.446 7.4834-12.7607 13.1457-1.30587 3.1967-1.85199 8.2969-.048 11.3702 2.9386 5.0042 9.8507 2.2439 14.1682 1.2145 1.0432-.2491 5.3972-1.7823 5.5572.2731.0606.7769-1.0797 2.0691-1.5961 2.5512-6.133 5.7148-17.8516 8.5756-24.68498 2.357-1.43613-1.3071-2.4621-2.9351-3.13846-4.7311zm72.45664-40.0095c-1.1836-1.0157-3.2185-.5118-4.1199.5096-.8454.9585-1.6543 2.5912-1.6486 3.8891.0091 1.251 1.1665 2.5032 2.3535 2.686 1.4704.2251 2.8986-.85 3.5384-2.1136.6661-1.3151 1.1619-3.8686-.1234-4.9711zm91.1294 14.0963c1.904 2.6129 2.574 6.7168 1.916 9.8381-1.13 5.3618-6.326 9.2155-11.602 9.9329-6.016.8169-12.481-1.5081-14.854-7.7713-.123-.3256-.305-.4136-.633-.2148-2.625 1.5824-6.978 3.1076-9.966 2.4793-2.112-.4445-4.103-1.5767-5.532-3.2288-.171-.1987-.35-.4432-.503-.634-.251-.3097-.559-.0732-.844.0457-2.264.9505-4.534 1.8417-7.001 2.069-1.141.1051-2.933-.0137-3.816-.858-2.163-2.0702-.719-6.3717.125-8.7356.462-1.2967 1.136-2.5398 1.299-3.9245.157-1.3402-1.202-1.5195-2.2-1.1985-3.868 1.2465-4.475 6.2244-5.429 9.5616-.428 1.499-.786 3.0254-1.37 4.4752-.382.9495-.843 1.9914-1.633 2.6724-.806.6946-2.074.9859-2.946.2387-.4192-.3598-.8042-1.0362-.9024-1.5823-.4091-2.2633.4501-4.5198 1.1294-6.6414.336-1.0454.688-2.1091.83-3.2025.106-.8271-.069-1.4978-1.092-.7632-1.5187 1.09-2.5366 3.0711-3.598 4.5655-1.7492 2.461-3.9165 4.9539-6.4186 6.6688-1.5733 1.0785-6.8105 2.5581-6.5992-1.0522.1417-2.3524 3.8263-3.7292 6.2861-5.6966 1.1791-.9437 2.261-2.0736 2.7398-3.544.9745-2.9877-.3371-6.8562-3.7817-4.6969-2.0166 1.2602-4.2033 3.8606-5.0842 6.0873-1.6715 4.2261-1.5858 9.0749-1.7572 13.5478-.1474 3.8674-.1896 7.8822-1.2659 11.6319-.5815 2.0325-2.6574 7.1681-5.5606 5.9319-4.3529-1.8417-.5484-12.0946.4296-15.1416.7998-2.4918 1.6967-4.9471 2.3741-7.4755.1977-.746 1.1871-2.9591.0229-3.0584-.6718-.0549-1.9388 1.8771-2.3159 2.2461-2.0313 2.0314-5.0567 4.5758-8.1426 4.3358-1.7572-.1348-3.0448-1.5481-3.592-3.1556-.152-.4467-.3565-1.443-.8398-1.644-.8272-.3439-2.1856 1.2167-2.75 1.6463-1.0157.7609-2.0119 1.5607-3.0254 2.3421-1.9673 1.5299-3.9896 3.0174-6.2152 4.1576-1.9902 1.0169-4.1541 1.7572-6.4026 1.7972-.9757.0114-2.2907.0708-2.7637-.9871-.6901-1.5424.7449-3.3601 1.9-4.2056 1.251-.9163 2.7363-1.4396 4.009-2.3227 1.6144-1.1185 3.0037-2.2919 3.9188-4.0856.7438-1.459 1.379-4.6146-1.0145-4.9345-1.6509-.2205-3.6332 1.4476-4.7391 2.4987-1.379 1.3093-2.4576 2.9008-3.3042 4.5951-1.6886 3.3796-2.5021 7.1281-3.1773 10.8195-.6101 3.3339-1.0134 6.7008-1.5641 10.0438-.5312 3.239-.6855 6.9647-2.3821 9.8633-1.0214 1.7457-2.902 2.5626-4.5963 1.0545-2.0417-1.8177-1.7869-4.939-1.427-7.3452.4661-3.127 1.355-6.1718 2.4164-9.1434.7106-1.988 1.4876-3.9554 2.1765-5.9513.8112-2.3502 1.5606-4.7346 2.0291-7.183.2262-1.1802.3907-2.3753.4216-3.5772.024-.9197-.2605-2.253.3667-3.0322.4216-.5233 1.2088-.4856 1.7915-.7083 1.6612-.6341 2.8288-2.068 3.9393-3.3899 1.1882-1.4132 2.2827-2.9065 3.4961-4.2981 2.1513-2.4678 5.7148-5.2612 9.1846-3.5977 2.285 1.0945 3.6035 3.672 3.5486 6.1489-.0285 1.2477-.3187 2.8586-.9128 3.9725-.2754.5165-.689.9666-.9449 1.4887-.1577.3211-.2468.8832.2194.9392.4718.056 1.1299-.5918 1.4761-.8569 1.5607-1.1779 2.6426-2.8906 3.6526-4.5323 1.034-1.6784 5.5469-12.8395 8.0786-6.4586.6673 1.6817-.3004 3.5452-1.0088 5.0464-.5998 1.2694-1.2202 2.5387-1.6395 3.8823-.2845.9117-.7243 2.6346.1246 3.4012 1.7651 1.5892 4.8533-2.0199 5.9021-3.183.7655-.8489 1.4807-1.7412 2.1617-2.6575 1.5755-2.117 3.1041-4.3084 4.2661-6.6836.6489-1.3254 1.0168-3.5978 3.0676-3.0848.946.2376 1.9708.3199 2.9157.0365 1.1402-.3427 1.6658-1.3081 2.4084-2.1502 1.2442-1.4098 2.734-2.8197 4.6169-3.2652 1.5846-.3759 3.1064.1599 4.1553 1.3607 1.0979 1.2556 1.4475 2.694 1.8085 4.2752.248 1.0877.7838 1.9309 1.9689 1.2351 1.857-1.09 2.791-3.3601 3.226-5.3492.657-3.0014.502-6.1216.75-9.1686.414-5.1002 1.644-9.9993 4.072-14.52815 1.245-2.32158 2.766-5.62342 5.352-6.714513 2.265-.9551362 4.769.229643 5.508 2.619763 1.6 5.17213.695 11.3188-1.347 16.2339-1.21 2.9122-2.858 5.6268-4.644 8.2135-.962 1.3915-2.034 2.7043-3.165 3.9622-.238.2639-.58.6341-.578.8454.007.4959.543.08.667-.008 2.248-1.6052 4.849-3.1167 7.692-2.3364 2.187.601 2.986 2.5467 3.111 4.6889.184 3.2961-1.603 6.3683-3.341 9.0223-.558.8432-1.897 2.5718-1.581 3.6503.384 1.3002 2.663.4879 3.458.1748.663-.2616 1.147-.4707 1.805-.7437.328-.1371.669-.3816.719-.7724.127-.9939.142-1.8348.228-2.8322.348-3.968 2.224-9.2372 6.126-11.0184 3.573-1.6303 7.632-.3382 9.486 3.1613 2.136 4.0377-.24 8.6922-3.647 11.0995-1.416.9997-2.962 1.8029-4.557 2.4747-.245.1039-.599.2685-.828.4021-.645.3771.578.9803.897 1.1014 3.477 1.323 7.566-1.7937 9.301-4.5997.705-1.138 1.073-2.5364 1.732-3.7177.645-1.1517 1.413-2.2382 2.361-3.1614 2.78-2.7146 6.997-3.6617 10.777-3.3041 4.028.3805 7.971 2.2005 10.394 5.5252zm-50.111-33.95761c-1.316-.93229-2.429 2.53981-2.677 3.22761-.694 1.924-1.231 3.9268-1.659 5.9262-.146.6489-1.2 6.4985-.553 6.8219.504.2525 1.371-1.3482 1.598-1.7595 1.995-3.6206 3.258-7.8376 3.744-11.9392.078-.6478.188-1.82229-.453-2.27701zm15.714 30.06161c-.81.1314-1.555.6227-2.015 1.2956-.573.8386-.888 1.8463-1.049 2.8403-.084.5118-.159 1.1745-.155 1.6932.005.497-.068 1.2316.583 1.3539.582.1096 1.251-.1406 2.493-.9152 1.175-.7312 2.525-1.9011 2.869-3.2961.416-1.6898-.948-3.2619-2.726-2.9717zm27.894 16.7286c3.599-3.0322 3.187-8.5871-.467-11.264-3.401-2.4929-8.926-1.8303-10.815 2.3833-3.407 7.6 5.615 13.653 11.282 8.8807zm1.107 11.0595c-.312 4.5094 7.789 6.4426 8.176.914.2-4.8443-7.73-5.1539-8.176-.914zm6.2 9.4965c.469 1.0671 1.831 1.3573 2.866.8854 3.139-1.4304.488-5.0396-2.279-3.3715-.806.4867-.934 1.6315-.608 2.4358z"></path></svg>